<svg xmlns="http://www.w3.org/2000/svg" xmlns:xlink="http://www.w3.org/1999/xlink" width="243.562" height="38.504" viewBox="0 0 243.562 38.504">
  <defs>
    <clipPath id="clip-path">
      <rect id="Rechteck_1" data-name="Rechteck 1" width="243.562" height="38.504" fill="#d5ff6f"/>
    </clipPath>
  </defs>
  <g id="Gruppe_2" data-name="Gruppe 2" transform="translate(0 0)">
    <g id="Gruppe_1" data-name="Gruppe 1" transform="translate(0 0)" clip-path="url(#clip-path)">
      <path id="Pfad_1" data-name="Pfad 1" d="M226.132,20.348v.607h-8.694v-.607c0-2.376,1.668-3.942,4.3-3.942,2.679,0,4.4,1.565,4.4,3.942M209.047,25c0,7.531,5,12.485,12.738,12.485,6.722,0,11.676-3.488,12.535-8.795h-8.239c-.253,2.022-1.617,3.033-4.145,3.033-2.881,0-4.549-1.567-4.549-4.246V26.109H234.47a16.939,16.939,0,0,0,.152-2.274c0-7.936-5-13.041-12.889-13.041A12.226,12.226,0,0,0,209.047,23.43Zm-27.394.1c0,7.38,5.207,12.384,12.889,12.384,7.228,0,12.535-4.8,12.636-11.524h-8.439v.96a3.932,3.932,0,0,1-4.2,3.841,4.3,4.3,0,0,1-4.5-4.6V22.067a4.207,4.207,0,0,1,4.5-4.549,3.961,3.961,0,0,1,4.2,3.841v.96h8.439c-.1-6.52-5.661-11.524-12.636-11.524-7.479,0-12.889,5.206-12.889,12.333Zm-10.412,2.426c0,2.477-1.668,3.943-4.5,3.943q-3.185,0-3.184-2.426c0-1.415.707-2.174,2.881-2.78l1.87-.506a4.323,4.323,0,0,0,2.931-2.02ZM155.473,30c0,4.5,3.184,7.481,8.035,7.481,3.993,0,7.177-2.073,8.188-5.307v4.8h7.633V20.6c0-6.419-3.892-9.806-11.322-9.806a12.677,12.677,0,0,0-8.189,2.527,8.246,8.246,0,0,0-3.184,6.622h7.278c.051-2.123,1.365-3.185,3.842-3.185,2.224,0,3.437.809,3.437,2.376,0,1.264-.708,1.719-4.094,2.477l-3.235.707c-5.712,1.264-8.39,3.387-8.39,7.683m-9.4-18.7h-8.035V36.976h8.289V23.937c0-3.589,1.314-4.853,4.953-4.853h3.842V10.795h-1.567c-3.488,0-5.964,1.971-7.481,5.964ZM120.748,8.925V36.976h9.1V8.925h9.25V1.7H111.5V8.925Zm-15.768,18.6c0,2.477-1.668,3.943-4.5,3.943q-3.185,0-3.184-2.426c0-1.415.707-2.174,2.881-2.78l1.87-.506a4.326,4.326,0,0,0,2.932-2.02ZM89.21,30c0,4.5,3.184,7.481,8.035,7.481,3.993,0,7.178-2.073,8.189-5.307v4.8h7.632V20.6c0-6.419-3.892-9.806-11.322-9.806a12.669,12.669,0,0,0-8.188,2.527,8.243,8.243,0,0,0-3.185,6.622h7.279c.05-2.123,1.364-3.185,3.841-3.185,2.224,0,3.437.809,3.437,2.376,0,1.264-.708,1.719-4.094,2.477l-3.235.707c-5.711,1.264-8.39,3.387-8.39,7.683m-9.4-18.7H71.773V36.976h8.289V23.937c0-3.589,1.314-4.853,4.953-4.853h3.842V10.795H87.289c-3.488,0-5.964,1.971-7.481,5.964Zm-19.357,0H52.414V36.976H60.7V23.937c0-3.589,1.314-4.853,4.953-4.853H69.5V10.795H67.932c-3.488,0-5.965,1.971-7.481,5.964ZM41.3,20.348v.607H32.6v-.607c0-2.376,1.668-3.942,4.3-3.942,2.679,0,4.4,1.565,4.4,3.942M24.212,25c0,7.531,5,12.485,12.737,12.485,6.722,0,11.676-3.488,12.535-8.795H41.244c-.253,2.022-1.617,3.033-4.144,3.033-2.883,0-4.55-1.567-4.55-4.246V26.109H49.636a17.2,17.2,0,0,0,.151-2.274c0-7.936-5-13.041-12.889-13.041A12.225,12.225,0,0,0,24.212,23.43ZM9.25,8.925V36.976h9.1V8.925H27.6V1.7H0V8.925Z" transform="translate(0 1.021)" fill="#d5ff6f"/>
      <path id="Pfad_2" data-name="Pfad 2" d="M150.43,0a6.359,6.359,0,1,0,6.358,6.359A6.366,6.366,0,0,0,150.43,0m4.323,5.4h-3.362V2.035A4.441,4.441,0,0,1,154.753,5.4m-5.284-3.363V5.4h-3.362a4.444,4.444,0,0,1,3.362-3.363m-3.362,5.286h3.362v3.363a4.444,4.444,0,0,1-3.362-3.363m5.284,3.363V7.321h3.362a4.439,4.439,0,0,1-3.362,3.363" transform="translate(86.772 -0.001)" fill="#d5ff6f"/>
    </g>
  </g>
</svg>
